<svg width="82" height="80" viewBox="0 0 82 80" fill="none" xmlns="http://www.w3.org/2000/svg">
<g clip-path="url(#clip0_1467_44802)">
<path d="M52.0574 17.9914H29.962C29.4585 17.992 28.9758 18.1922 28.6197 18.5481C28.2637 18.9039 28.0634 19.3864 28.0628 19.8896V68.9711L27.8095 69.0483L22.3892 70.7073C22.1323 70.7856 21.8548 70.7588 21.6177 70.6328C21.3805 70.5068 21.2031 70.2919 21.1243 70.0353L5.00123 17.3979C4.92277 17.1412 4.94951 16.8638 5.07558 16.6267C5.20165 16.3897 5.41673 16.2123 5.67356 16.1337L14.0263 13.5774L38.2413 6.16935L46.594 3.61309C46.7211 3.57399 46.8547 3.56032 46.9871 3.57288C47.1195 3.58544 47.2481 3.62397 47.3656 3.68626C47.4831 3.74856 47.5872 3.8334 47.6718 3.93593C47.7565 4.03846 47.82 4.15667 47.8589 4.28379L51.9802 17.7383L52.0574 17.9914Z" fill="#F2F2F2"/>
<path d="M56.8777 17.7386L51.9106 1.5228C51.828 1.25261 51.6929 1.00135 51.5131 0.783369C51.3332 0.565387 51.1122 0.38496 50.8626 0.252397C50.6129 0.119833 50.3396 0.0377293 50.0582 0.0107812C49.7768 -0.0161669 49.4929 0.0125683 49.2226 0.0953419L37.4791 3.68802L13.2655 11.0974L1.52198 14.6913C0.976444 14.8588 0.519656 15.2357 0.251884 15.7394C-0.0158871 16.2431 -0.0727655 16.8324 0.0937364 17.3779L17.0702 72.7969C17.2054 73.2373 17.4784 73.6227 17.8489 73.8967C18.2194 74.1707 18.6681 74.3188 19.129 74.3192C19.3423 74.3193 19.5544 74.2873 19.7582 74.2243L27.8084 71.7617L28.0616 71.6833V71.4188L27.8084 71.496L19.6835 73.9826C19.202 74.1293 18.6819 74.0792 18.2373 73.8431C17.7927 73.6071 17.46 73.2044 17.312 72.7235L0.336888 17.3033C0.263589 17.065 0.238043 16.8146 0.26171 16.5664C0.285378 16.3182 0.357792 16.0771 0.474812 15.857C0.591831 15.6368 0.751157 15.4418 0.943661 15.2833C1.13617 15.1248 1.35807 15.0057 1.59666 14.933L13.3401 11.3391L37.5539 3.931L49.2974 0.33705C49.4783 0.28185 49.6665 0.253704 49.8557 0.253528C50.2618 0.254439 50.6569 0.385284 50.9831 0.626897C51.3094 0.86851 51.5497 1.20819 51.6688 1.5962L56.6131 17.7386L56.6916 17.9917H56.955L56.8777 17.7386Z" fill="#AFAFAF"/>
<path d="M15.5328 16.175C15.2888 16.1748 15.0512 16.0965 14.855 15.9515C14.6588 15.8065 14.5142 15.6024 14.4425 15.3693L12.8117 10.0452C12.7678 9.90221 12.7526 9.75197 12.7669 9.60308C12.7812 9.45419 12.8247 9.30957 12.8949 9.17748C12.9651 9.0454 13.0607 8.92842 13.1761 8.83325C13.2915 8.73808 13.4246 8.66656 13.5677 8.6228L35.8441 1.80647C36.1331 1.71834 36.4452 1.7484 36.7121 1.89005C36.9789 2.03171 37.1786 2.27339 37.2673 2.56205L38.8982 7.88619C38.9863 8.17502 38.9562 8.48699 38.8145 8.75367C38.6728 9.02034 38.431 9.21994 38.1422 9.30868L15.8657 16.125C15.7579 16.1581 15.6457 16.1749 15.5328 16.175Z" fill="#AFAFAF"/>
<path d="M24.0753 5.68885C25.4738 5.68885 26.6075 4.55571 26.6075 3.1579C26.6075 1.7601 25.4738 0.626953 24.0753 0.626953C22.6767 0.626953 21.543 1.7601 21.543 3.1579C21.543 4.55571 22.6767 5.68885 24.0753 5.68885Z" fill="#AFAFAF"/>
<path d="M24.0762 4.76102C24.9618 4.76102 25.6797 4.04347 25.6797 3.15834C25.6797 2.27321 24.9618 1.55566 24.0762 1.55566C23.1906 1.55566 22.4727 2.27321 22.4727 3.15834C22.4727 4.04347 23.1906 4.76102 24.0762 4.76102Z" fill="white"/>
<path d="M76.3015 73.6726H33.5059C33.2206 73.6722 32.947 73.5588 32.7453 73.3571C32.5435 73.1555 32.43 72.8821 32.4297 72.5969V21.3452C32.43 21.06 32.5435 20.7866 32.7453 20.5849C32.947 20.3833 33.2206 20.2698 33.5059 20.2695H76.3015C76.5869 20.2699 76.8604 20.3833 77.0622 20.5849C77.2639 20.7866 77.3774 21.06 77.3778 21.3452V72.5969C77.3774 72.8821 77.2639 73.1555 77.0622 73.3571C76.8604 73.5588 76.5869 73.6722 76.3015 73.6726Z" fill="#E6E6E6"/>
<path d="M56.6133 17.7383H29.961C29.3904 17.7391 28.8434 17.966 28.4399 18.3693C28.0364 18.7726 27.8094 19.3193 27.8086 19.8896V71.4957L28.0618 71.4185V19.8896C28.0624 19.3863 28.2627 18.9039 28.6188 18.548C28.9748 18.1922 29.4575 17.992 29.961 17.9914H56.6919L56.6133 17.7383ZM79.8471 17.7383H29.961C29.3904 17.7391 28.8434 17.966 28.4399 18.3693C28.0364 18.7726 27.8094 19.3193 27.8086 19.8896V77.8483C27.8094 78.4187 28.0364 78.9654 28.4399 79.3687C28.8434 79.7719 29.3904 79.9988 29.961 79.9996H79.8471C80.4177 79.9988 80.9647 79.7719 81.3682 79.3687C81.7717 78.9654 81.9987 78.4187 81.9995 77.8483V19.8896C81.9987 19.3193 81.7717 18.7726 81.3682 18.3693C80.9647 17.966 80.4177 17.7391 79.8471 17.7383ZM81.7463 77.8483C81.7457 78.3516 81.5454 78.834 81.1893 79.1899C80.8333 79.5457 80.3506 79.7459 79.8471 79.7465H29.961C29.4575 79.7459 28.9748 79.5457 28.6188 79.1899C28.2627 78.834 28.0624 78.3516 28.0618 77.8483V19.8896C28.0624 19.3863 28.2627 18.9039 28.6188 18.548C28.9748 18.1922 29.4575 17.992 29.961 17.9914H79.8471C80.3506 17.992 80.8333 18.1922 81.1893 18.548C81.5454 18.9039 81.7457 19.3863 81.7463 19.8896V77.8483Z" fill="#AFAFAF"/>
<path d="M66.5537 23.3069H43.2567C42.9546 23.3065 42.6649 23.1864 42.4513 22.9729C42.2377 22.7594 42.1175 22.4699 42.1172 22.168V16.5999C42.1175 16.2979 42.2377 16.0084 42.4513 15.7949C42.665 15.5814 42.9546 15.4613 43.2567 15.4609H66.5537C66.8559 15.4613 67.1455 15.5814 67.3591 15.7949C67.5728 16.0084 67.6929 16.2979 67.6933 16.5999V22.168C67.6929 22.4699 67.5728 22.7594 67.3591 22.9729C67.1455 23.1864 66.8559 23.3065 66.5537 23.3069Z" fill="#AFAFAF"/>
<path d="M54.9034 15.8402C56.3019 15.8402 57.4357 14.7071 57.4357 13.3093C57.4357 11.9115 56.3019 10.7783 54.9034 10.7783C53.5048 10.7783 52.3711 11.9115 52.3711 13.3093C52.3711 14.7071 53.5048 15.8402 54.9034 15.8402Z" fill="#AFAFAF"/>
<path d="M54.9057 14.8507C55.7575 14.8507 56.4481 14.1606 56.4481 13.3092C56.4481 12.4578 55.7575 11.7676 54.9057 11.7676C54.0538 11.7676 53.3633 12.4578 53.3633 13.3092C53.3633 14.1606 54.0538 14.8507 54.9057 14.8507Z" fill="white"/>
</g>
<defs>
<clipPath id="clip0_1467_44802">
<rect width="82" height="80" fill="white"/>
</clipPath>
</defs>
</svg>
