<svg xmlns="http://www.w3.org/2000/svg" width="109" height="25" viewBox="0 0 109 25" fill="none">
  <g clip-path="url(#clip0_843_23052)">
    <path d="M15.3711 0H22.272L30.7309 10.59L22.4256 21.8846H15.3711L23.83 10.9423L15.3711 0Z" fill="#0E195F"/>
    <path d="M26.002 0H32.9029L41.3618 10.59L33.0565 21.8846H26.002L34.4608 10.9423L26.002 0Z" fill="#0E195F"/>
    <path d="M14.5918 1.2439L0 19.9361L4.42144 25L11.103 16.3474L15.3708 21.8846L18.5196 17.8005L14.4382 11.6798L18.5196 6.69304L14.5918 1.2439Z" fill="#3DA8ED"/>
    <path d="M49.8312 13.4073H47.582V3.36769H49.8312V13.4073ZM52.19 10.4241H48.3829V8.42053H52.2778C52.7934 8.42053 53.1555 8.31045 53.3529 8.1123C53.5504 7.91415 53.6492 7.50684 53.6492 6.90138C53.6492 6.29592 53.5504 5.88861 53.3529 5.69046C53.1555 5.49231 52.7934 5.39323 52.2778 5.39323H48.3829V3.36769H52.19C52.85 3.35753 53.5033 3.5007 54.099 3.78601C54.6411 4.05543 55.0944 4.47583 55.4046 4.99693C55.7309 5.57714 55.894 6.2354 55.8763 6.90138C55.8927 7.57071 55.7297 8.23218 55.4046 8.81684C55.0937 9.33466 54.6403 9.75134 54.099 10.0167C53.5024 10.2983 52.8491 10.4377 52.19 10.4241Z" fill="#0A2B54"/>
    <path d="M59.037 13.4088H56.7988V3.36914H61.3958C62.1967 3.36914 62.866 3.49023 63.4145 3.73242C63.9313 3.93867 64.372 4.30008 64.6762 4.7672C64.9813 5.26632 65.1339 5.84424 65.1151 6.42947C65.1283 6.91014 65.0346 7.38774 64.8408 7.82753C64.6721 8.21613 64.3837 8.54023 64.018 8.75223C63.5812 9.00207 63.0934 9.14888 62.5917 9.18156V9.33568C62.974 9.43637 63.3225 9.63781 63.601 9.91912C63.8722 10.2034 64.0947 10.5307 64.2593 10.8879L65.532 13.4088H62.9208L61.7359 11.086C61.6121 10.8343 61.4652 10.5948 61.2971 10.3705C61.1619 10.1962 60.9843 10.0597 60.7814 9.97416C60.5109 9.87607 60.2241 9.83121 59.9366 9.84206H59.037V13.4088ZM59.037 5.39468V7.98165H61.5055C62.0321 7.98165 62.3942 7.89358 62.5917 7.69543C62.7892 7.49728 62.8879 7.16703 62.8879 6.68266C62.8879 6.19829 62.7892 5.86804 62.5917 5.6809C62.3942 5.49376 62.0321 5.39468 61.5055 5.39468H59.037Z" fill="#0A2B54"/>
    <path d="M70.7214 13.5505C69.7267 13.5505 68.871 13.3413 68.1542 12.923C67.4398 12.4943 66.8645 11.8672 66.4975 11.1176C66.1135 10.347 65.916 9.43333 65.916 8.38753C65.916 7.34174 66.1135 6.42804 66.4975 5.65746C66.8645 4.90784 67.4398 4.28081 68.1542 3.85209C68.871 3.43377 69.7267 3.22461 70.7214 3.22461C71.7162 3.22461 72.5719 3.43377 73.2887 3.85209C74.008 4.27469 74.5849 4.9034 74.9454 5.65746C75.3294 6.42804 75.5159 7.34174 75.5159 8.38753C75.5159 9.43333 75.3294 10.347 74.9454 11.1176C74.5849 11.8717 74.008 12.5004 73.2887 12.923C72.5793 13.3413 71.7235 13.5505 70.7214 13.5505ZM70.7214 11.3818C71.292 11.3818 71.7528 11.2937 72.1038 11.1176C72.4549 10.9525 72.7182 10.6442 72.8828 10.2039C73.0474 9.76358 73.1351 9.16913 73.1351 8.38753C73.1351 7.60594 73.0474 6.98947 72.8828 6.56014C72.7483 6.17005 72.4694 5.84682 72.1038 5.65746C71.7528 5.48132 71.292 5.39326 70.7214 5.39326C70.1509 5.39326 69.6792 5.48132 69.3281 5.65746C68.9625 5.84682 68.6836 6.17005 68.5491 6.56014C68.3955 6.98947 68.3078 7.59493 68.3078 8.38753C68.3078 9.18013 68.3955 9.77459 68.5491 10.2039C68.7027 10.6332 68.977 10.9525 69.3281 11.1176C69.6792 11.2827 70.1509 11.3818 70.7214 11.3818Z" fill="#0A2B54"/>
    <path d="M78.8182 13.4088H76.5801V3.36914H78.8182V13.4088ZM80.3981 13.4088H77.1945V11.3832H80.3652C81.0454 11.3832 81.583 11.3062 81.9999 11.141C82.2017 11.0595 82.3846 10.9374 82.5375 10.7821C82.6903 10.6268 82.8098 10.4418 82.8886 10.2384C83.0861 9.80903 83.1738 9.19257 83.1738 8.38896C83.1738 7.58534 83.0861 6.96888 82.8886 6.53955C82.8082 6.3371 82.6881 6.15289 82.5354 5.99784C82.3828 5.84278 82.2007 5.72004 81.9999 5.63686C81.583 5.47174 81.0454 5.39468 80.3652 5.39468H77.1945V3.36914H80.3981C81.4733 3.36914 82.3949 3.56729 83.1738 3.9746C83.925 4.35455 84.5445 4.95307 84.9512 5.69191C85.3681 6.44047 85.5766 7.34316 85.5766 8.38896C85.5766 9.43475 85.3681 10.3374 84.9512 11.086C84.5445 11.8248 83.925 12.4234 83.1738 12.8033C82.3949 13.2106 81.4733 13.4088 80.3981 13.4088Z" fill="#0A2B54"/>
    <path d="M88.8233 13.4088H86.5742V3.36914H88.8233V13.4088Z" fill="#0A2B54"/>
    <path d="M94.2762 13.5505C93.3217 13.5505 92.5208 13.3523 91.8625 12.934C91.1965 12.502 90.6734 11.8813 90.3594 11.1506C90.0193 10.38 89.8438 9.45534 89.8438 8.38753C89.8438 7.31972 90.0412 6.42804 90.4252 5.65746C90.7971 4.9041 91.3806 4.27648 92.1038 3.85209C92.828 3.43377 93.6947 3.22461 94.715 3.22461C95.7353 3.22461 96.5472 3.37873 97.2274 3.68696C97.859 3.9695 98.3933 4.43288 98.7634 5.01897C99.1183 5.6415 99.2966 6.34959 99.2791 7.06653V7.14359H96.9093V7.08854C96.9093 6.45006 96.7447 6.00973 96.4046 5.75653C96.0645 5.50334 95.483 5.39326 94.6711 5.39326C94.194 5.37763 93.7191 5.46394 93.2778 5.64645C92.9267 5.81158 92.6634 6.11981 92.4878 6.54914C92.3123 6.97846 92.2355 7.59493 92.2355 8.38753C92.2355 9.18013 92.3233 9.80761 92.5098 10.2479C92.5834 10.4487 92.696 10.6328 92.841 10.7897C92.986 10.9465 93.1606 11.0729 93.3546 11.1616C93.7386 11.3268 94.2542 11.4148 94.8796 11.4148C95.3142 11.4219 95.7483 11.3813 96.1742 11.2937C96.4684 11.2369 96.7329 11.077 96.9202 10.8424C97.0848 10.6222 97.1616 10.314 97.1616 9.89568V9.22417H99.312V9.45534L97.403 11.8772H97.1506C97.0346 12.163 96.8714 12.4273 96.6679 12.6588C96.4097 12.9352 96.0954 13.1529 95.7463 13.2973C95.3514 13.4734 94.8686 13.5505 94.2762 13.5505ZM99.312 9.95072H94.4298V8.06829H99.312V9.95072ZM99.312 13.4073H97.2384V10.6993L97.1616 10.5121V8.3435H99.312V13.4073Z" fill="#0A2B54"/>
    <path d="M104.985 9.97416H102.988L98.9727 3.36914H101.507L103.076 6.01115L103.943 7.48627H104.085L104.941 6.01115L106.51 3.36914H109L104.985 9.97416ZM105.106 13.4088H102.867V8.52106H105.106V13.4088Z" fill="#0A2B54"/>
    <path d="M47.9664 18.4724H47.7031V16.0176H48.0761L48.7673 17.5367L48.9868 18.0651H48.9977L49.2172 17.5367L49.9084 16.0176H50.2704V18.4724H50.0181V16.4249H50.0071L49.8425 16.7772L49.1404 18.3183H48.8332L48.131 16.7772L47.9774 16.4249H47.9555V18.4724H47.9664Z" fill="#1A5458"/>
    <path d="M52.5868 18.4724H52.3125L53.2999 16.0176H53.6729L54.6604 18.4724H54.3751L53.6291 16.634L53.4864 16.2708H53.4755L53.3219 16.634L52.5868 18.4724ZM54.2105 17.7569H52.7514V17.5147H54.2105V17.7569Z" fill="#1A5458"/>
    <path d="M56.9516 18.4725H56.6992V16.0177H57.6866C57.8375 16.0158 57.987 16.0458 58.1255 16.1057C58.2482 16.1514 58.3523 16.2366 58.4217 16.3479C58.4985 16.4612 58.537 16.5963 58.5314 16.7332C58.5337 16.8598 58.5035 16.985 58.4437 17.0965C58.3851 17.1976 58.297 17.2783 58.1913 17.3277C58.0705 17.3826 57.9399 17.4125 57.8073 17.4157V17.4377C57.8791 17.4573 57.9462 17.491 58.0048 17.5368C58.061 17.5962 58.109 17.6628 58.1474 17.735L58.5643 18.4725H58.2681L57.8622 17.779C57.8283 17.7161 57.7879 17.6571 57.7415 17.6029C57.691 17.5573 57.631 17.5234 57.566 17.5038C57.4804 17.4791 57.3916 17.468 57.3026 17.4708H56.9516V18.4725ZM56.9516 16.2598V17.2506H57.7305C57.8761 17.2618 58.0206 17.2187 58.1365 17.1295C58.2282 17.0266 58.2789 16.8933 58.2789 16.7552C58.2789 16.6171 58.2282 16.4839 58.1365 16.3809C58.0206 16.2918 57.8761 16.2486 57.7305 16.2598H56.9516Z" fill="#1A5458"/>
    <path d="M60.9008 18.4724H60.6484V16.0176H60.9008V18.4724Z" fill="#1A5458"/>
    <path d="M63.4586 18.4724H63.1953V16.0176H63.4806L64.5777 17.6468L64.83 18.0321H64.852V16.0176H65.1153V18.4724H64.83L63.7329 16.8432L63.4696 16.4689H63.4586V18.4724Z" fill="#1A5458"/>
    <path d="M67.6598 18.4724H67.3965V16.0176H67.6598V18.4724ZM69.0422 16.2598H67.4843V16.0176H69.0422V16.2598ZM68.9873 17.3606H67.4843V17.1184H68.9873V17.3606ZM69.0422 18.4724H67.4843V18.2303H69.0422V18.4724Z" fill="#1A5458"/>
    <path d="M74.6484 18.5046C74.4593 18.5146 74.2706 18.4767 74.0999 18.3945C73.9659 18.3359 73.8544 18.2355 73.7817 18.1083C73.7078 17.9977 73.6695 17.8671 73.672 17.734V17.6679H73.9353V17.712C73.9326 17.8114 73.9552 17.91 74.0011 17.9982C74.0493 18.0877 74.1268 18.1577 74.2206 18.1963C74.3615 18.2456 74.5103 18.268 74.6594 18.2624C74.8139 18.277 74.9688 18.2382 75.0983 18.1523C75.1468 18.1179 75.1855 18.0713 75.2105 18.0173C75.2356 17.9632 75.246 17.9035 75.2409 17.8441C75.2455 17.7681 75.2303 17.6923 75.197 17.6239C75.1658 17.5584 75.1109 17.5072 75.0434 17.4808L74.7581 17.3817L74.3303 17.2937C74.2107 17.2734 74.0956 17.2325 73.9902 17.1726C73.8996 17.1239 73.8238 17.0517 73.7707 16.9634C73.7095 16.8686 73.6789 16.7571 73.683 16.6442C73.682 16.5266 73.7164 16.4115 73.7817 16.3139C73.8574 16.2084 73.9596 16.1248 74.0779 16.0717C74.2313 16.0101 74.3955 15.9802 74.5607 15.9837C74.7392 15.9749 74.9168 16.0128 75.0763 16.0937C75.2006 16.1634 75.3032 16.2663 75.3725 16.391C75.4371 16.5051 75.4711 16.634 75.4713 16.7652V16.8203H75.208V16.7763C75.2094 16.6734 75.1869 16.5716 75.1421 16.479C75.0977 16.3932 75.0236 16.3267 74.9337 16.2919C74.8118 16.243 74.6809 16.2205 74.5497 16.2258C74.3935 16.2158 74.2376 16.2502 74.0999 16.3249C74.0522 16.3576 74.014 16.4022 73.9889 16.4544C73.9639 16.5065 73.953 16.5644 73.9572 16.6221C73.9512 16.7017 73.9664 16.7815 74.0011 16.8533C74.0394 16.9079 74.0928 16.95 74.1547 16.9744L74.44 17.0735L74.8569 17.1726C74.9803 17.191 75.0993 17.2321 75.208 17.2937C75.2986 17.3423 75.3744 17.4145 75.4274 17.5028C75.4833 17.6035 75.5099 17.7179 75.5042 17.8331C75.5024 17.9522 75.4723 18.0692 75.4164 18.1743C75.3407 18.2798 75.2385 18.3634 75.1202 18.4165C74.9708 18.4784 74.8101 18.5084 74.6484 18.5046Z" fill="#1A5458"/>
    <path d="M78.6864 18.5054C78.4789 18.5065 78.2748 18.4533 78.0939 18.3513C77.9276 18.2432 77.7946 18.0907 77.7099 17.9109C77.6089 17.7059 77.5599 17.479 77.5673 17.2504C77.559 17.0182 77.608 16.7875 77.7099 16.5789C77.7946 16.3991 77.9276 16.2466 78.0939 16.1386C78.2748 16.0365 78.4789 15.9834 78.6864 15.9845C78.8906 15.9817 79.0917 16.035 79.2679 16.1386C79.4342 16.2466 79.5672 16.3991 79.6519 16.5789C79.7539 16.7875 79.8029 17.0182 79.7945 17.2504C79.802 17.479 79.753 17.7059 79.6519 17.9109C79.5672 18.0907 79.4342 18.2432 79.2679 18.3513C79.0917 18.4549 78.8906 18.5082 78.6864 18.5054ZM78.6864 18.2412C78.8494 18.2473 79.0113 18.2133 79.1582 18.1421C79.2796 18.064 79.3721 17.9479 79.4215 17.8119C79.4919 17.6334 79.5255 17.4424 79.5202 17.2504C79.5263 17.0549 79.4927 16.8601 79.4215 16.678C79.3721 16.5419 79.2796 16.4259 79.1582 16.3478C79.0123 16.2728 78.8503 16.235 78.6864 16.2377C78.5224 16.2336 78.36 16.2714 78.2146 16.3478C78.0871 16.4247 77.9872 16.5404 77.9294 16.678C77.8676 16.8624 77.8379 17.056 77.8416 17.2504C77.8387 17.4412 77.8684 17.6311 77.9294 17.8119C77.9872 17.9495 78.0871 18.0652 78.2146 18.1421C78.3612 18.2142 78.5234 18.2482 78.6864 18.2412Z" fill="#1A5458"/>
    <path d="M82.2094 18.4724H81.957V16.0176H82.2094V18.4724ZM83.5479 18.4724H82.0338V18.2303H83.5479V18.4724Z" fill="#1A5458"/>
    <path d="M86.6073 18.5055C86.4211 18.5085 86.2368 18.467 86.0697 18.3844C85.9205 18.3095 85.798 18.1904 85.7186 18.0431C85.6351 17.8759 85.5937 17.6907 85.598 17.5037V16.0176H85.8613V17.5037C85.854 17.6508 85.8803 17.7976 85.9381 17.933C85.9584 17.9873 85.9906 18.0363 86.0324 18.0763C86.0742 18.1163 86.1245 18.1464 86.1794 18.1642C86.4555 18.2671 86.7592 18.2671 87.0352 18.1642C87.0891 18.1444 87.1384 18.1137 87.1799 18.0739C87.2215 18.0341 87.2544 17.9862 87.2766 17.933C87.3344 17.7976 87.3606 17.6508 87.3534 17.5037V16.0176H87.6167V17.5037C87.621 17.6907 87.5795 17.8759 87.496 18.0431C87.4167 18.1904 87.2941 18.3095 87.1449 18.3844C86.9778 18.467 86.7935 18.5085 86.6073 18.5055Z" fill="#1A5458"/>
    <path d="M91.6538 16.2598H89.668V16.0176H91.6538V16.2598ZM90.787 18.4724H90.5347V16.0176H90.787V18.4724Z" fill="#1A5458"/>
    <path d="M93.9594 18.4724H93.707V16.0176H93.9594V18.4724Z" fill="#1A5458"/>
    <path d="M97.2385 18.5058C97.0343 18.5087 96.8332 18.4554 96.657 18.3517C96.485 18.2472 96.3476 18.094 96.2621 17.9114C96.1679 17.7021 96.1191 17.475 96.1191 17.2454C96.1191 17.0157 96.1679 16.7887 96.2621 16.5794C96.3476 16.3967 96.485 16.2435 96.657 16.139C96.8342 16.0377 97.0346 15.9844 97.2385 15.9844C97.4424 15.9844 97.6428 16.0377 97.82 16.139C97.9864 16.2471 98.1193 16.3996 98.204 16.5794C98.306 16.788 98.355 17.0187 98.3466 17.2509C98.3541 17.4795 98.3051 17.7064 98.204 17.9114C98.1193 18.0912 97.9864 18.2437 97.82 18.3517C97.6438 18.4554 97.4427 18.5087 97.2385 18.5058ZM97.2385 18.2416C97.4015 18.2487 97.5637 18.2146 97.7103 18.1425C97.8319 18.0617 97.9273 17.9469 97.9846 17.8123C98.0455 17.6315 98.0752 17.4417 98.0723 17.2509C98.076 17.0564 98.0463 16.8628 97.9846 16.6784C97.9273 16.5438 97.8319 16.429 97.7103 16.3482C97.5649 16.2719 97.4025 16.234 97.2385 16.2381C97.0746 16.2354 96.9126 16.2732 96.7667 16.3482C96.6392 16.4251 96.5393 16.5408 96.4815 16.6784C96.4197 16.8628 96.39 17.0564 96.3937 17.2509C96.3909 17.4417 96.4205 17.6315 96.4815 17.8123C96.5393 17.9499 96.6392 18.0656 96.7667 18.1425C96.9136 18.2137 97.0756 18.2478 97.2385 18.2416Z" fill="#1A5458"/>
    <path d="M100.771 18.4724H100.508V16.0176H100.793L101.879 17.6468L102.143 18.0321H102.164V16.0176H102.428V18.4724H102.143L101.045 16.8432L100.782 16.4689H100.771V18.4724Z" fill="#1A5458"/>
    <path d="M105.588 18.5046C105.399 18.5132 105.21 18.4754 105.039 18.3945C104.905 18.3359 104.794 18.2355 104.721 18.1083C104.652 17.9957 104.614 17.8664 104.611 17.734V17.6679H104.875V17.712C104.872 17.8114 104.895 17.91 104.94 17.9982C104.991 18.0856 105.068 18.1549 105.16 18.1963C105.301 18.2456 105.45 18.268 105.599 18.2624C105.753 18.277 105.908 18.2382 106.038 18.1523C106.088 18.1192 106.129 18.0732 106.156 18.0191C106.183 17.9649 106.195 17.9045 106.191 17.8441C106.193 17.7671 106.174 17.691 106.136 17.6239C106.123 17.5918 106.104 17.5627 106.079 17.5381C106.055 17.5135 106.026 17.4941 105.994 17.4808L105.697 17.3817L105.27 17.2937C105.154 17.2735 105.042 17.2325 104.94 17.1726C104.844 17.1277 104.764 17.0548 104.71 16.9634C104.653 16.8673 104.626 16.7559 104.633 16.6442C104.632 16.5266 104.667 16.4115 104.732 16.3139C104.804 16.2088 104.902 16.1251 105.017 16.0717C105.171 16.0101 105.335 15.9802 105.5 15.9837C105.678 15.9749 105.856 16.0128 106.016 16.0937C106.14 16.1634 106.242 16.2663 106.312 16.391C106.376 16.5051 106.41 16.634 106.411 16.7652V16.8203H106.147V16.7763C106.149 16.6734 106.126 16.5716 106.081 16.479C106.042 16.3933 105.972 16.3262 105.884 16.2919C105.762 16.2439 105.631 16.2214 105.5 16.2258C105.34 16.2155 105.181 16.2498 105.039 16.3249C104.992 16.3576 104.953 16.4022 104.928 16.4544C104.903 16.5065 104.892 16.5644 104.897 16.6221C104.891 16.7017 104.906 16.7815 104.94 16.8533C104.979 16.9079 105.032 16.95 105.094 16.9744L105.39 17.0735L105.796 17.1726C105.92 17.1892 106.039 17.2304 106.147 17.2937C106.24 17.3392 106.317 17.4122 106.367 17.5028C106.423 17.6035 106.449 17.7179 106.444 17.8331C106.447 17.9528 106.416 18.0711 106.356 18.1743C106.282 18.2771 106.184 18.3602 106.071 18.4165C105.917 18.4773 105.753 18.5072 105.588 18.5046Z" fill="#1A5458"/>
  </g>
  <defs>
    <clipPath id="clip0_843_23052">
      <rect width="109" height="25" fill="white"/>
    </clipPath>
  </defs>
</svg>