<svg width="1440" height="50" viewBox="0 0 1440 50" fill="none" xmlns="http://www.w3.org/2000/svg">
<g clip-path="url(#clip0_8471_141664)">
<rect width="1440" height="50" fill="#13A4CC"/>
<path d="M1175.59 0H1440V50H1126L1175.59 0Z" fill="#EDF1F2"/>
<path d="M869.866 44.8276C1011.46 47.338 1143.62 85.3218 1192 104V0H673.989C586.67 10.3103 555.991 24.2069 394.334 53.3448C265.349 76.5937 94.6188 64.5517 25 53.7931C52.1395 58.5747 133.58 73.0881 246.836 75.7586C417.933 79.7931 692.869 41.6897 869.866 44.8276Z" fill="white" fill-opacity="0.1"/>
<path d="M711.886 14.934C876.092 -10.5812 1100.38 10.6815 1192 24.5022V81C1176.27 75.0768 1110.84 58.6742 974.946 40.4491C805.078 17.6677 622.234 43.6385 491.293 60.9524C400.304 72.9837 291.453 74.6561 230.921 73.7929C220.068 73.7784 212.014 73.549 207 73.2543C213.716 73.4738 221.766 73.6624 230.921 73.7929C259.218 73.8308 306.54 72.4081 368.611 66.8755C475.958 57.3074 506.629 46.8279 711.886 14.934Z" fill="white" fill-opacity="0.1"/>
<path d="M0 29.7625V0.0044803H560.527C560.722 -0.00158966 560.879 -0.00139643 561 0.0044803H560.527C556.462 0.131469 536.017 2.99973 481.142 13.9173C409.27 28.2166 276.532 65.4816 121.775 52.1776C94.8025 49.8587 30.9351 38.6512 0 29.7625Z" fill="white" fill-opacity="0.1"/>
</g>
<defs>
<clipPath id="clip0_8471_141664">
<rect width="1440" height="50" fill="white"/>
</clipPath>
</defs>
</svg>